<svg width="35" height="35" viewBox="0 0 35 35" xmlns="http://www.w3.org/2000/svg"><title>codepen</title><g fill="#FFF" fill-rule="evenodd"><path d="M8.562 15.925v3.106l2.322-1.553-2.322-1.553zM16.577 13.67V9.34L9.305 14.19l3.248 2.173 4.024-2.692zM25.706 14.189L18.434 9.34v4.329l4.024 2.692 3.248-2.173zM9.305 20.768l7.272 4.847v-4.329l-4.024-2.691-3.248 2.173zM18.434 21.286v4.33l7.272-4.848-3.248-2.173-4.024 2.691zM17.505 15.282l-3.282 2.196 3.282 2.196 3.283-2.196-3.283-2.196z"/><path d="M28.305 20.769c0 .04-.003.08-.008.121l-.008.04c-.004.026-.009.052-.016.078l-.014.045-.024.068-.02.045-.032.062-.027.042a.83.83 0 0 1-.117.147c-.012.012-.024.025-.037.036a.877.877 0 0 1-.053.045l-.042.031-.015.012-9.872 6.581a.927.927 0 0 1-1.03 0L7.12 21.541l-.015-.012a.872.872 0 0 1-.095-.076c-.013-.011-.025-.024-.037-.036l-.046-.05a.764.764 0 0 1-.071-.097 1.12 1.12 0 0 1-.058-.104l-.021-.045a.938.938 0 0 1-.024-.068l-.014-.045c-.007-.026-.012-.052-.017-.078l-.007-.04a.914.914 0 0 1-.009-.121v-6.581a.9.9 0 0 1 .009-.122l.007-.04c.005-.026.01-.052.017-.078l.014-.045a.836.836 0 0 1 .142-.273c.01-.014.02-.028.032-.04.015-.018.03-.035.046-.05.012-.013.024-.026.037-.037a.901.901 0 0 1 .095-.076l.015-.012 9.872-6.58a.928.928 0 0 1 1.03 0l9.87 6.58.016.012a.906.906 0 0 1 .095.076c.013.011.025.024.037.036a.794.794 0 0 1 .117.147l.027.043.031.061c.007.015.015.03.02.046.01.022.017.045.025.067l.014.045c.007.026.012.052.016.078l.008.04a.9.9 0 0 1 .008.122v6.58zM17.505.01C7.86.011.04 7.831.04 17.478c0 9.647 7.82 17.467 17.466 17.467 9.647 0 17.467-7.82 17.467-17.467 0-9.647-7.82-17.467-17.467-17.467z"/><path d="M26.449 19.031v-3.106l-2.322 1.553 2.322 1.553z"/></g></svg>