<svg width="35" height="35" viewBox="0 0 35 35" xmlns="http://www.w3.org/2000/svg"><title>twitter</title><path d="M17.5 0C7.836 0 0 7.836 0 17.5S7.836 35 17.5 35 35 27.164 35 17.5 27.164 0 17.5 0zm8.846 14.066c.267 5.891-4.127 12.46-11.906 12.46-2.365 0-4.566-.695-6.42-1.883a8.427 8.427 0 0 0 6.202-1.734 4.198 4.198 0 0 1-3.914-2.91 4.201 4.201 0 0 0 1.892-.07c-2.014-.406-3.405-2.22-3.36-4.161.566.313 1.21.501 1.898.523a4.195 4.195 0 0 1-1.297-5.593 11.89 11.89 0 0 0 8.634 4.377c-.611-2.62 1.376-5.144 4.081-5.144 1.204 0 2.293.51 3.057 1.323a8.355 8.355 0 0 0 2.66-1.017 4.206 4.206 0 0 1-1.842 2.318 8.356 8.356 0 0 0 2.405-.66 8.407 8.407 0 0 1-2.09 2.17z" fill="#FFF" fill-rule="evenodd"/></svg>